solid CATIA STL
  facet normal -2.225976e-002 -9.236506e-001  3.825886e-001
    outer loop
      vertex  2.500000e+000 -1.172987e+000  9.349338e-001
      vertex  0.000000e+000 -1.060660e+000  1.060660e+000
      vertex  0.000000e+000 -1.500000e+000  1.836910e-016
    endloop
  endfacet
  facet normal  1.683579e-002 -5.556782e-001  8.312270e-001
    outer loop
      vertex  2.500000e+000 -1.172987e+000  9.349338e-001
      vertex  2.500000e+000 -4.155306e-001  1.441296e+000
      vertex  0.000000e+000 -1.060660e+000  1.060660e+000
    endloop
  endfacet
  facet normal  4.187578e-002 -3.823478e-001  9.230691e-001
    outer loop
      vertex  1.000000e+001 -1.060660e+000  1.060660e+000
      vertex  1.000000e+001  9.184548e-017  1.500000e+000
      vertex  7.500000e+000 -4.155306e-001  1.441296e+000
    endloop
  endfacet
  facet normal -2.809633e-002  2.787500e-002  9.992164e-001
    outer loop
      vertex  7.500000e+000  4.952370e-001  1.415889e+000
      vertex  7.500000e+000 -4.155306e-001  1.441296e+000
      vertex  1.000000e+001  9.184548e-017  1.500000e+000
    endloop
  endfacet
  facet normal  4.467941e-002  3.823013e-001  9.229569e-001
    outer loop
      vertex  1.000000e+001  9.184548e-017  1.500000e+000
      vertex  1.000000e+001  1.060660e+000  1.060660e+000
      vertex  7.500000e+000  4.952370e-001  1.415889e+000
    endloop
  endfacet
  facet normal -4.187578e-002 -3.823478e-001  9.230691e-001
    outer loop
      vertex  0.000000e+000 -1.060660e+000  1.060660e+000
      vertex  2.500000e+000 -4.155306e-001  1.441296e+000
      vertex  0.000000e+000  9.184548e-017  1.500000e+000
    endloop
  endfacet
  facet normal  2.809633e-002  2.787500e-002  9.992164e-001
    outer loop
      vertex  0.000000e+000  9.184548e-017  1.500000e+000
      vertex  2.500000e+000 -4.155306e-001  1.441296e+000
      vertex  2.500000e+000  4.952370e-001  1.415889e+000
    endloop
  endfacet
  facet normal -4.467940e-002  3.823013e-001  9.229569e-001
    outer loop
      vertex  0.000000e+000  9.184548e-017  1.500000e+000
      vertex  2.500000e+000  4.952370e-001  1.415889e+000
      vertex  0.000000e+000  1.060660e+000  1.060660e+000
    endloop
  endfacet
  facet normal  0.000000e+000 -9.439256e-001  3.301580e-001
    outer loop
      vertex  7.500000e+000 -1.172987e+000  9.349338e-001
      vertex  2.500000e+000 -1.172987e+000  9.349338e-001
      vertex  0.000000e+000 -1.500000e+000  1.836910e-016
    endloop
  endfacet
  facet normal  0.000000e+000 -9.439256e-001  3.301580e-001
    outer loop
      vertex  7.500000e+000 -1.172987e+000  9.349338e-001
      vertex  0.000000e+000 -1.500000e+000  1.836910e-016
      vertex  1.000000e+001 -1.500000e+000  1.836910e-016
    endloop
  endfacet
  facet normal  2.225976e-002 -9.236506e-001  3.825886e-001
    outer loop
      vertex  7.500000e+000 -1.172987e+000  9.349338e-001
      vertex  1.000000e+001 -1.500000e+000  1.836910e-016
      vertex  1.000000e+001 -1.060660e+000  1.060660e+000
    endloop
  endfacet
  facet normal -1.683579e-002 -5.556782e-001  8.312270e-001
    outer loop
      vertex  7.500000e+000 -1.172987e+000  9.349338e-001
      vertex  1.000000e+001 -1.060660e+000  1.060660e+000
      vertex  7.500000e+000 -4.155306e-001  1.441296e+000
    endloop
  endfacet
  facet normal  -0.000000e+000  9.238795e-001  3.826835e-001
    outer loop
      vertex  1.000000e+001  1.500000e+000  0.000000e+000
      vertex  7.500000e+000  1.500000e+000  0.000000e+000
      vertex  1.000000e+001  1.060660e+000  1.060660e+000
    endloop
  endfacet
  facet normal  3.855437e-002  9.520569e-001  3.034814e-001
    outer loop
      vertex  1.000000e+001  1.060660e+000  1.060660e+000
      vertex  7.500000e+000  1.500000e+000  0.000000e+000
      vertex  7.500000e+000  1.223286e+000  8.680854e-001
    endloop
  endfacet
  facet normal -2.243569e-002  6.010888e-001  7.988672e-001
    outer loop
      vertex  1.000000e+001  1.060660e+000  1.060660e+000
      vertex  7.500000e+000  1.223286e+000  8.680854e-001
      vertex  7.500000e+000  4.952370e-001  1.415889e+000
    endloop
  endfacet
  facet normal  -0.000000e+000  9.527654e-001  3.037072e-001
    outer loop
      vertex  2.500000e+000  1.500000e+000  0.000000e+000
      vertex  0.000000e+000  1.500000e+000  0.000000e+000
      vertex  2.500000e+000  1.223286e+000  8.680854e-001
    endloop
  endfacet
  facet normal -3.060615e-002  9.234467e-001  3.825042e-001
    outer loop
      vertex  2.500000e+000  1.223286e+000  8.680854e-001
      vertex  0.000000e+000  1.500000e+000  0.000000e+000
      vertex  0.000000e+000  1.060660e+000  1.060660e+000
    endloop
  endfacet
  facet normal  2.243569e-002  6.010888e-001  7.988672e-001
    outer loop
      vertex  2.500000e+000  1.223286e+000  8.680854e-001
      vertex  0.000000e+000  1.060660e+000  1.060660e+000
      vertex  2.500000e+000  4.952370e-001  1.415889e+000
    endloop
  endfacet
  facet normal  0.000000e+000  9.238795e-001 -3.826835e-001
    outer loop
      vertex  1.000000e+001  1.060660e+000 -1.060660e+000
      vertex  0.000000e+000  1.060660e+000 -1.060660e+000
      vertex  0.000000e+000  1.500000e+000  0.000000e+000
    endloop
  endfacet
  facet normal  0.000000e+000  9.238795e-001 -3.826835e-001
    outer loop
      vertex  1.000000e+001  1.060660e+000 -1.060660e+000
      vertex  0.000000e+000  1.500000e+000  0.000000e+000
      vertex  2.500000e+000  1.500000e+000  0.000000e+000
    endloop
  endfacet
  facet normal  0.000000e+000  9.238795e-001 -3.826835e-001
    outer loop
      vertex  1.000000e+001  1.060660e+000 -1.060660e+000
      vertex  2.500000e+000  1.500000e+000  0.000000e+000
      vertex  7.500000e+000  1.500000e+000  0.000000e+000
    endloop
  endfacet
  facet normal  0.000000e+000  9.238795e-001 -3.826835e-001
    outer loop
      vertex  1.000000e+001  1.060660e+000 -1.060660e+000
      vertex  7.500000e+000  1.500000e+000  0.000000e+000
      vertex  1.000000e+001  1.500000e+000  0.000000e+000
    endloop
  endfacet
  facet normal  0.000000e+000  3.826835e-001 -9.238795e-001
    outer loop
      vertex  0.000000e+000  1.060660e+000 -1.060660e+000
      vertex  1.000000e+001  1.060660e+000 -1.060660e+000
      vertex  0.000000e+000 -2.755364e-016 -1.500000e+000
    endloop
  endfacet
  facet normal  0.000000e+000  3.826835e-001 -9.238795e-001
    outer loop
      vertex  0.000000e+000 -2.755364e-016 -1.500000e+000
      vertex  1.000000e+001  1.060660e+000 -1.060660e+000
      vertex  1.000000e+001 -2.755364e-016 -1.500000e+000
    endloop
  endfacet
  facet normal  -0.000000e+000 -3.826835e-001 -9.238795e-001
    outer loop
      vertex  0.000000e+000 -2.755364e-016 -1.500000e+000
      vertex  1.000000e+001 -2.755364e-016 -1.500000e+000
      vertex  0.000000e+000 -1.060660e+000 -1.060660e+000
    endloop
  endfacet
  facet normal  0.000000e+000 -3.826835e-001 -9.238795e-001
    outer loop
      vertex  0.000000e+000 -1.060660e+000 -1.060660e+000
      vertex  1.000000e+001 -2.755364e-016 -1.500000e+000
      vertex  1.000000e+001 -1.060660e+000 -1.060660e+000
    endloop
  endfacet
  facet normal  -0.000000e+000 -9.238795e-001 -3.826835e-001
    outer loop
      vertex  0.000000e+000 -1.060660e+000 -1.060660e+000
      vertex  1.000000e+001 -1.060660e+000 -1.060660e+000
      vertex  0.000000e+000 -1.500000e+000  1.836910e-016
    endloop
  endfacet
  facet normal  0.000000e+000 -9.238795e-001 -3.826835e-001
    outer loop
      vertex  0.000000e+000 -1.500000e+000  1.836910e-016
      vertex  1.000000e+001 -1.060660e+000 -1.060660e+000
      vertex  1.000000e+001 -1.500000e+000  1.836910e-016
    endloop
  endfacet
  facet normal  0.000000e+000 -6.788466e-001  7.342802e-001
    outer loop
      vertex  2.500000e+000 -1.172987e+000  9.349338e-001
      vertex  7.500000e+000 -1.172987e+000  9.349338e-001
      vertex  2.500000e+000  1.598531e+000  3.497219e+000
    endloop
  endfacet
  facet normal  0.000000e+000 -6.788466e-001  7.342802e-001
    outer loop
      vertex  2.500000e+000  1.598531e+000  3.497219e+000
      vertex  7.500000e+000 -1.172987e+000  9.349338e-001
      vertex  7.500000e+000  1.598531e+000  3.497219e+000
    endloop
  endfacet
  facet normal  0.000000e+000 -4.285278e-001  9.035287e-001
    outer loop
      vertex  2.500000e+000  1.598531e+000  3.497219e+000
      vertex  7.500000e+000  1.598531e+000  3.497219e+000
      vertex  2.500000e+000  5.008872e+000  5.114684e+000
    endloop
  endfacet
  facet normal  0.000000e+000 -4.285278e-001  9.035287e-001
    outer loop
      vertex  2.500000e+000  5.008872e+000  5.114684e+000
      vertex  7.500000e+000  1.598531e+000  3.497219e+000
      vertex  7.500000e+000  5.008872e+000  5.114684e+000
    endloop
  endfacet
  facet normal  0.000000e+000 -1.390826e-001  9.902808e-001
    outer loop
      vertex  2.500000e+000  5.008872e+000  5.114684e+000
      vertex  7.500000e+000  5.008872e+000  5.114684e+000
      vertex  2.500000e+000  8.746655e+000  5.639647e+000
    endloop
  endfacet
  facet normal  0.000000e+000 -1.390826e-001  9.902808e-001
    outer loop
      vertex  2.500000e+000  8.746655e+000  5.639647e+000
      vertex  7.500000e+000  5.008872e+000  5.114684e+000
      vertex  7.500000e+000  8.746655e+000  5.639647e+000
    endloop
  endfacet
  facet normal  0.000000e+000  1.630615e-001  9.866160e-001
    outer loop
      vertex  2.500000e+000  8.746655e+000  5.639647e+000
      vertex  7.500000e+000  8.746655e+000  5.639647e+000
      vertex  2.500000e+000  1.247061e+001  5.024177e+000
    endloop
  endfacet
  facet normal  -0.000000e+000  1.630615e-001  9.866160e-001
    outer loop
      vertex  2.500000e+000  1.247061e+001  5.024177e+000
      vertex  7.500000e+000  8.746655e+000  5.639647e+000
      vertex  7.500000e+000  1.247061e+001  5.024177e+000
    endloop
  endfacet
  facet normal  0.000000e+000  4.503172e-001  8.928686e-001
    outer loop
      vertex  2.500000e+000  1.247061e+001  5.024177e+000
      vertex  7.500000e+000  1.247061e+001  5.024177e+000
      vertex  2.500000e+000  1.584071e+001  3.324468e+000
    endloop
  endfacet
  facet normal  -0.000000e+000  4.503172e-001  8.928686e-001
    outer loop
      vertex  2.500000e+000  1.584071e+001  3.324468e+000
      vertex  7.500000e+000  1.247061e+001  5.024177e+000
      vertex  7.500000e+000  1.584071e+001  3.324468e+000
    endloop
  endfacet
  facet normal  0.000000e+000  6.964571e-001  7.175983e-001
    outer loop
      vertex  2.500000e+000  1.584071e+001  3.324468e+000
      vertex  7.500000e+000  1.584071e+001  3.324468e+000
      vertex  2.500000e+000  1.854926e+001  6.957123e-001
    endloop
  endfacet
  facet normal  -0.000000e+000  6.964571e-001  7.175983e-001
    outer loop
      vertex  2.500000e+000  1.854926e+001  6.957123e-001
      vertex  7.500000e+000  1.584071e+001  3.324468e+000
      vertex  7.500000e+000  1.854926e+001  6.957123e-001
    endloop
  endfacet
  facet normal -1.000000e+000  0.000000e+000  0.000000e+000
    outer loop
      vertex  2.500000e+000  1.223286e+000  8.680854e-001
      vertex  2.500000e+000  4.952370e-001  1.415889e+000
      vertex  2.500000e+000  5.104398e+000  1.837964e+000
    endloop
  endfacet
  facet normal -9.999999e-001  0.000000e+000  0.000000e+000
    outer loop
      vertex  2.500000e+000  1.223286e+000  8.680854e-001
      vertex  2.500000e+000  5.104398e+000  1.837964e+000
      vertex  2.500000e+000  1.500000e+000  0.000000e+000
    endloop
  endfacet
  facet normal -1.000000e+000  0.000000e+000  0.000000e+000
    outer loop
      vertex  2.500000e+000 -4.155306e-001  1.441296e+000
      vertex  2.500000e+000 -1.172987e+000  9.349338e-001
      vertex  2.500000e+000  1.598531e+000  3.497219e+000
    endloop
  endfacet
  facet normal -1.000000e+000  0.000000e+000  -0.000000e+000
    outer loop
      vertex  2.500000e+000 -4.155306e-001  1.441296e+000
      vertex  2.500000e+000  1.598531e+000  3.497219e+000
      vertex  2.500000e+000  1.584071e+001  3.324468e+000
    endloop
  endfacet
  facet normal -1.000000e+000  0.000000e+000  0.000000e+000
    outer loop
      vertex  2.500000e+000 -4.155306e-001  1.441296e+000
      vertex  2.500000e+000  1.584071e+001  3.324468e+000
      vertex  2.500000e+000  9.123429e+000  2.303990e+000
    endloop
  endfacet
  facet normal -1.000000e+000  0.000000e+000  0.000000e+000
    outer loop
      vertex  2.500000e+000 -4.155306e-001  1.441296e+000
      vertex  2.500000e+000  9.123429e+000  2.303990e+000
      vertex  2.500000e+000  5.104398e+000  1.837964e+000
    endloop
  endfacet
  facet normal -1.000000e+000  0.000000e+000  0.000000e+000
    outer loop
      vertex  2.500000e+000 -4.155306e-001  1.441296e+000
      vertex  2.500000e+000  5.104398e+000  1.837964e+000
      vertex  2.500000e+000  4.952370e-001  1.415889e+000
    endloop
  endfacet
  facet normal -1.000000e+000  0.000000e+000  0.000000e+000
    outer loop
      vertex  2.500000e+000  8.746655e+000  5.639647e+000
      vertex  2.500000e+000  1.247061e+001  5.024177e+000
      vertex  2.500000e+000  5.008872e+000  5.114684e+000
    endloop
  endfacet
  facet normal -1.000000e+000  0.000000e+000  0.000000e+000
    outer loop
      vertex  2.500000e+000  5.008872e+000  5.114684e+000
      vertex  2.500000e+000  1.247061e+001  5.024177e+000
      vertex  2.500000e+000  1.584071e+001  3.324468e+000
    endloop
  endfacet
  facet normal -9.999999e-001  0.000000e+000  0.000000e+000
    outer loop
      vertex  2.500000e+000  5.008872e+000  5.114684e+000
      vertex  2.500000e+000  1.584071e+001  3.324468e+000
      vertex  2.500000e+000  1.598531e+000  3.497219e+000
    endloop
  endfacet
  facet normal -1.000000e+000  0.000000e+000  0.000000e+000
    outer loop
      vertex  2.500000e+000  1.639936e+001 -9.341931e-001
      vertex  2.500000e+000  1.305277e+001  1.339599e+000
      vertex  2.500000e+000  1.854926e+001  6.957123e-001
    endloop
  endfacet
  facet normal -1.000000e+000  0.000000e+000  0.000000e+000
    outer loop
      vertex  2.500000e+000  1.854926e+001  6.957123e-001
      vertex  2.500000e+000  1.305277e+001  1.339599e+000
      vertex  2.500000e+000  9.123429e+000  2.303990e+000
    endloop
  endfacet
  facet normal -1.000000e+000  0.000000e+000  0.000000e+000
    outer loop
      vertex  2.500000e+000  1.854926e+001  6.957123e-001
      vertex  2.500000e+000  9.123429e+000  2.303990e+000
      vertex  2.500000e+000  1.584071e+001  3.324468e+000
    endloop
  endfacet
  facet normal  1.000000e+000  -0.000000e+000  0.000000e+000
    outer loop
      vertex  7.500000e+000  5.104398e+000  1.837964e+000
      vertex  7.500000e+000  4.952370e-001  1.415889e+000
      vertex  7.500000e+000  1.223286e+000  8.680854e-001
    endloop
  endfacet
  facet normal  9.999999e-001  0.000000e+000  0.000000e+000
    outer loop
      vertex  7.500000e+000  1.500000e+000  0.000000e+000
      vertex  7.500000e+000  5.104398e+000  1.837964e+000
      vertex  7.500000e+000  1.223286e+000  8.680854e-001
    endloop
  endfacet
  facet normal  1.000000e+000  0.000000e+000  -0.000000e+000
    outer loop
      vertex  7.500000e+000 -4.155306e-001  1.441296e+000
      vertex  7.500000e+000  4.952370e-001  1.415889e+000
      vertex  7.500000e+000  5.104398e+000  1.837964e+000
    endloop
  endfacet
  facet normal  9.999999e-001  0.000000e+000  -0.000000e+000
    outer loop
      vertex  7.500000e+000 -4.155306e-001  1.441296e+000
      vertex  7.500000e+000  5.104398e+000  1.837964e+000
      vertex  7.500000e+000  9.123429e+000  2.303990e+000
    endloop
  endfacet
  facet normal  1.000000e+000  0.000000e+000  -0.000000e+000
    outer loop
      vertex  7.500000e+000 -4.155306e-001  1.441296e+000
      vertex  7.500000e+000  9.123429e+000  2.303990e+000
      vertex  7.500000e+000  1.584071e+001  3.324468e+000
    endloop
  endfacet
  facet normal  1.000000e+000  0.000000e+000  0.000000e+000
    outer loop
      vertex  7.500000e+000 -4.155306e-001  1.441296e+000
      vertex  7.500000e+000  1.584071e+001  3.324468e+000
      vertex  7.500000e+000  1.598531e+000  3.497219e+000
    endloop
  endfacet
  facet normal  1.000000e+000  0.000000e+000  0.000000e+000
    outer loop
      vertex  7.500000e+000 -4.155306e-001  1.441296e+000
      vertex  7.500000e+000  1.598531e+000  3.497219e+000
      vertex  7.500000e+000 -1.172987e+000  9.349338e-001
    endloop
  endfacet
  facet normal  9.999999e-001  0.000000e+000  0.000000e+000
    outer loop
      vertex  7.500000e+000  1.598531e+000  3.497219e+000
      vertex  7.500000e+000  1.584071e+001  3.324468e+000
      vertex  7.500000e+000  5.008872e+000  5.114684e+000
    endloop
  endfacet
  facet normal  1.000000e+000  0.000000e+000  0.000000e+000
    outer loop
      vertex  7.500000e+000  5.008872e+000  5.114684e+000
      vertex  7.500000e+000  1.584071e+001  3.324468e+000
      vertex  7.500000e+000  1.247061e+001  5.024177e+000
    endloop
  endfacet
  facet normal  1.000000e+000  0.000000e+000  0.000000e+000
    outer loop
      vertex  7.500000e+000  5.008872e+000  5.114684e+000
      vertex  7.500000e+000  1.247061e+001  5.024177e+000
      vertex  7.500000e+000  8.746655e+000  5.639647e+000
    endloop
  endfacet
  facet normal  1.000000e+000  -0.000000e+000  0.000000e+000
    outer loop
      vertex  7.500000e+000  1.584071e+001  3.324468e+000
      vertex  7.500000e+000  9.123429e+000  2.303990e+000
      vertex  7.500000e+000  1.854926e+001  6.957123e-001
    endloop
  endfacet
  facet normal  1.000000e+000  0.000000e+000  0.000000e+000
    outer loop
      vertex  7.500000e+000  1.854926e+001  6.957123e-001
      vertex  7.500000e+000  9.123429e+000  2.303990e+000
      vertex  7.500000e+000  1.305277e+001  1.339599e+000
    endloop
  endfacet
  facet normal  1.000000e+000  0.000000e+000  0.000000e+000
    outer loop
      vertex  7.500000e+000  1.854926e+001  6.957123e-001
      vertex  7.500000e+000  1.305277e+001  1.339599e+000
      vertex  7.500000e+000  1.639936e+001 -9.341931e-001
    endloop
  endfacet
  facet normal  0.000000e+000  1.151830e-001 -9.933443e-001
    outer loop
      vertex  2.500000e+000  9.123429e+000  2.303990e+000
      vertex  7.500000e+000  5.104398e+000  1.837964e+000
      vertex  2.500000e+000  5.104398e+000  1.837964e+000
    endloop
  endfacet
  facet normal  0.000000e+000  4.542714e-001 -8.908634e-001
    outer loop
      vertex  2.500000e+000  5.104398e+000  1.837964e+000
      vertex  7.500000e+000  5.104398e+000  1.837964e+000
      vertex  7.500000e+000  1.500000e+000  0.000000e+000
    endloop
  endfacet
  facet normal  0.000000e+000  4.542714e-001 -8.908634e-001
    outer loop
      vertex  2.500000e+000  5.104398e+000  1.837964e+000
      vertex  7.500000e+000  1.500000e+000  0.000000e+000
      vertex  2.500000e+000  1.500000e+000  0.000000e+000
    endloop
  endfacet
  facet normal  0.000000e+000  1.151830e-001 -9.933443e-001
    outer loop
      vertex  7.500000e+000  5.104398e+000  1.837964e+000
      vertex  2.500000e+000  9.123429e+000  2.303990e+000
      vertex  7.500000e+000  9.123429e+000  2.303990e+000
    endloop
  endfacet
  facet normal  -0.000000e+000 -2.383589e-001 -9.711772e-001
    outer loop
      vertex  7.500000e+000  9.123429e+000  2.303990e+000
      vertex  2.500000e+000  9.123429e+000  2.303990e+000
      vertex  2.500000e+000  1.305277e+001  1.339599e+000
    endloop
  endfacet
  facet normal  0.000000e+000 -2.383589e-001 -9.711772e-001
    outer loop
      vertex  7.500000e+000  9.123429e+000  2.303990e+000
      vertex  2.500000e+000  1.305277e+001  1.339599e+000
      vertex  7.500000e+000  1.305277e+001  1.339599e+000
    endloop
  endfacet
  facet normal  -0.000000e+000 -5.619909e-001 -8.271434e-001
    outer loop
      vertex  7.500000e+000  1.305277e+001  1.339599e+000
      vertex  2.500000e+000  1.305277e+001  1.339599e+000
      vertex  2.500000e+000  1.639936e+001 -9.341931e-001
    endloop
  endfacet
  facet normal  0.000000e+000 -5.619909e-001 -8.271434e-001
    outer loop
      vertex  7.500000e+000  1.305277e+001  1.339599e+000
      vertex  2.500000e+000  1.639936e+001 -9.341931e-001
      vertex  7.500000e+000  1.639936e+001 -9.341931e-001
    endloop
  endfacet
  facet normal  0.000000e+000  6.041383e-001 -7.968795e-001
    outer loop
      vertex  2.500000e+000  1.854926e+001  6.957123e-001
      vertex  7.500000e+000  1.854926e+001  6.957123e-001
      vertex  2.500000e+000  1.639936e+001 -9.341931e-001
    endloop
  endfacet
  facet normal  0.000000e+000  6.041383e-001 -7.968795e-001
    outer loop
      vertex  2.500000e+000  1.639936e+001 -9.341931e-001
      vertex  7.500000e+000  1.854926e+001  6.957123e-001
      vertex  7.500000e+000  1.639936e+001 -9.341931e-001
    endloop
  endfacet
  facet normal  1.000000e+000  0.000000e+000  0.000000e+000
    outer loop
      vertex  1.000000e+001 -1.060660e+000  1.060660e+000
      vertex  1.000000e+001  1.060660e+000  1.060660e+000
      vertex  1.000000e+001  9.184548e-017  1.500000e+000
    endloop
  endfacet
  facet normal  9.999999e-001  -0.000000e+000  0.000000e+000
    outer loop
      vertex  1.000000e+001  1.060660e+000  1.060660e+000
      vertex  1.000000e+001 -1.060660e+000  1.060660e+000
      vertex  1.000000e+001  1.500000e+000  0.000000e+000
    endloop
  endfacet
  facet normal  1.000000e+000  0.000000e+000  0.000000e+000
    outer loop
      vertex  1.000000e+001  1.500000e+000  0.000000e+000
      vertex  1.000000e+001 -1.060660e+000  1.060660e+000
      vertex  1.000000e+001 -1.500000e+000  1.836910e-016
    endloop
  endfacet
  facet normal  1.000000e+000  0.000000e+000  0.000000e+000
    outer loop
      vertex  1.000000e+001  1.500000e+000  0.000000e+000
      vertex  1.000000e+001 -1.500000e+000  1.836910e-016
      vertex  1.000000e+001  1.060660e+000 -1.060660e+000
    endloop
  endfacet
  facet normal  9.999999e-001  0.000000e+000  0.000000e+000
    outer loop
      vertex  1.000000e+001  1.060660e+000 -1.060660e+000
      vertex  1.000000e+001 -1.500000e+000  1.836910e-016
      vertex  1.000000e+001 -1.060660e+000 -1.060660e+000
    endloop
  endfacet
  facet normal  1.000000e+000  -0.000000e+000  0.000000e+000
    outer loop
      vertex  1.000000e+001  1.060660e+000 -1.060660e+000
      vertex  1.000000e+001 -1.060660e+000 -1.060660e+000
      vertex  1.000000e+001 -2.755364e-016 -1.500000e+000
    endloop
  endfacet
  facet normal -1.000000e+000  0.000000e+000  0.000000e+000
    outer loop
      vertex  0.000000e+000  9.184548e-017  1.500000e+000
      vertex  0.000000e+000  1.060660e+000  1.060660e+000
      vertex  0.000000e+000 -1.060660e+000  1.060660e+000
    endloop
  endfacet
  facet normal -1.000000e+000  0.000000e+000  0.000000e+000
    outer loop
      vertex  0.000000e+000 -2.755364e-016 -1.500000e+000
      vertex  0.000000e+000 -1.060660e+000 -1.060660e+000
      vertex  0.000000e+000  1.060660e+000 -1.060660e+000
    endloop
  endfacet
  facet normal -9.999999e-001  0.000000e+000  0.000000e+000
    outer loop
      vertex  0.000000e+000  1.060660e+000 -1.060660e+000
      vertex  0.000000e+000 -1.060660e+000 -1.060660e+000
      vertex  0.000000e+000 -1.500000e+000  1.836910e-016
    endloop
  endfacet
  facet normal -1.000000e+000  0.000000e+000  0.000000e+000
    outer loop
      vertex  0.000000e+000  1.060660e+000 -1.060660e+000
      vertex  0.000000e+000 -1.500000e+000  1.836910e-016
      vertex  0.000000e+000  1.500000e+000  0.000000e+000
    endloop
  endfacet
  facet normal -1.000000e+000  0.000000e+000  0.000000e+000
    outer loop
      vertex  0.000000e+000  1.500000e+000  0.000000e+000
      vertex  0.000000e+000 -1.500000e+000  1.836910e-016
      vertex  0.000000e+000 -1.060660e+000  1.060660e+000
    endloop
  endfacet
  facet normal -9.999999e-001  0.000000e+000  0.000000e+000
    outer loop
      vertex  0.000000e+000  1.500000e+000  0.000000e+000
      vertex  0.000000e+000 -1.060660e+000  1.060660e+000
      vertex  0.000000e+000  1.060660e+000  1.060660e+000
    endloop
  endfacet
endsolid CATIA STL
